<?xml version="1.0" encoding="UTF-8"?>
<svg version="1.1" xmlns="http://www.w3.org/2000/svg" width="500" height="500">
<path d="M0 0 C9.27290342 -0.47963294 14.51491191 4.84376508 21.18603516 10.49804688 C23.48320144 12.40008819 25.8644976 14.16965015 28.26098633 15.94360352 C33.27030956 19.6602923 37.6982276 23.43961557 41.53515625 28.40625 C42.91303923 30.1180631 42.91303923 30.1180631 44.96875 30.87255859 C47.3844979 32.21341482 47.87938764 33.13115359 48.96484375 35.6328125 C49.28759277 36.35307617 49.6103418 37.07333984 49.94287109 37.81542969 C50.27109863 38.57758789 50.59932617 39.33974609 50.9375 40.125 C53.60322627 46.07171556 56.42816873 51.53719924 60 57 C60.71949183 58.64455275 61.41646396 60.3024406 62 62 C60.02 62 58.04 62 56 62 C58.75047381 64.17248354 58.75047381 64.17248354 61.5 64.25 C64 65 64 65 65.8125 68.0625 C66.4003125 69.5165625 66.4003125 69.5165625 67 71 C64.03 72.485 64.03 72.485 61 74 C64.44197063 73.59506228 66.1162563 72.91765179 69 70.875 C72 69 72 69 74.875 69.25 C75.57625 69.4975 76.2775 69.745 77 70 C77 70.66 77 71.32 77 72 C75.68 72 74.36 72 73 72 C73 72.66 73 73.32 73 74 C74.65 74 76.3 74 78 74 C78.33 76.64 78.66 79.28 79 82 C77.68 81.67 76.36 81.34 75 81 C77.65654657 84.73884332 79.58110387 86.64978174 84 88 C84 88.66 84 89.32 84 90 C82.02 90.66 80.04 91.32 78 92 C80.31 92.33 82.62 92.66 85 93 C84.8125 95.875 84.8125 95.875 84 99 C81.4375 100.375 81.4375 100.375 79 101 C80.98 101.33 82.96 101.66 85 102 C84.375 103.875 84.375 103.875 83 106 C79.875 107.25 79.875 107.25 77 108 C77 108.33 77 108.66 77 109 C79.31 109.33 81.62 109.66 84 110 C83.67 111.32 83.34 112.64 83 114 C82.34 114 81.68 114 81 114 C81 114.66 81 115.32 81 116 C81.66 116 82.32 116 83 116 C82.67 116.99 82.34 117.98 82 119 C80.35 119 78.7 119 77 119 C80.3 119.66 83.6 120.32 87 121 C87.33 121.99 87.66 122.98 88 124 C87.175 124.45375 86.35 124.9075 85.5 125.375 C84.2625 126.179375 84.2625 126.179375 83 127 C83 127.66 83 128.32 83 129 C84.98 128.67 86.96 128.34 89 128 C89 129.65 89 131.3 89 133 C88.01 133 87.02 133 86 133 C87.65 134.65 89.3 136.3 91 138 C87.78548731 139.60725635 84.56387464 139.05748185 81 139 C83.31 139.66 85.62 140.32 88 141 C88 141.33 88 141.66 88 142 C101.365 142.495 101.365 142.495 115 143 C114 145 114 145 111.80479431 145.90316772 C110.82756912 146.21146515 109.85034393 146.51976257 108.84350586 146.83740234 C107.72645767 147.19385834 106.60940948 147.55031433 105.45851135 147.91757202 C104.22310104 148.30313263 102.98769073 148.68869324 101.71484375 149.0859375 C100.41080332 149.49876122 99.10696972 149.91223878 97.80332947 150.32632446 C94.25778235 151.45032687 90.70926444 152.56466918 87.1601181 153.67724609 C83.44572436 154.8433181 79.73404746 156.0179779 76.02197266 157.19140625 C67.46445791 159.89426163 58.90238907 162.58250415 50.3390274 165.26676941 C48.02467045 165.99226639 45.7104117 166.71807585 43.3961792 167.44396973 C30.54029613 171.47606433 17.68246767 175.50192 4.82006836 179.51318359 C4.17895772 179.71317774 3.53784708 179.91317188 2.87730885 180.11922646 C-0.19790368 181.07820536 -3.27378953 182.0349391 -6.35063171 182.98867798 C-11.26643315 184.51362561 -16.17684435 186.04577072 -21.06152344 187.66796875 C-21.79531219 187.90854004 -22.52910095 188.14911133 -23.28512573 188.39697266 C-25.10438404 188.9964919 -26.91941887 189.60879101 -28.73388672 190.22265625 C-38.03018415 192.43520006 -45.43965054 189.59428039 -54.28125 186.671875 C-55.70980039 186.20948181 -57.13871465 185.7482115 -58.56796265 185.28797913 C-61.62280152 184.3020541 -64.67526784 183.30921858 -67.72601318 182.31069946 C-74.99441727 179.93198528 -82.27364412 177.58671368 -89.55150986 175.23714638 C-92.05275367 174.4291711 -94.55351796 173.61972464 -97.05422974 172.81010437 C-108.23216307 169.19455453 -119.43023834 165.64868543 -130.6484375 162.16015625 C-131.75405659 161.81616728 -131.75405659 161.81616728 -132.88201141 161.46522903 C-139.92672253 159.27415555 -146.97369631 157.09046091 -154.02275658 154.91342258 C-155.97618996 154.3094406 -157.92907206 153.70371234 -159.88174438 153.09727478 C-162.23611139 152.36637543 -164.59147544 151.63867549 -166.9480896 150.91505432 C-173.43278645 148.89890719 -179.73945223 146.63264424 -186 144 C-186 143.67 -186 143.34 -186 143 C-180.72 143 -175.44 143 -170 143 C-170 142.34 -170 141.68 -170 141 C-165.900639 140.0672582 -161.87956712 139.71174738 -157.6875 139.4375 C-156.43324219 139.35371094 -155.17898437 139.26992188 -153.88671875 139.18359375 C-152.93410156 139.12300781 -151.98148438 139.06242188 -151 139 C-153.93745244 136.80430379 -153.93745244 136.80430379 -157.625 136.0625 C-158.73875 135.711875 -159.8525 135.36125 -161 135 C-161.33 134.01 -161.66 133.02 -162 132 C-159.525 131.01 -159.525 131.01 -157 130 C-157.99 129.071875 -157.99 129.071875 -159 128.125 C-161 126 -161 126 -161 124 C-157.535 123.505 -157.535 123.505 -154 123 C-154.66 122.67 -155.32 122.34 -156 122 C-156.36548445 120.67511887 -156.6937566 119.33981486 -157 118 C-157.37125 117.319375 -157.7425 116.63875 -158.125 115.9375 C-159 114 -159 114 -158 111 C-156.15234375 110.26953125 -156.15234375 110.26953125 -153.9375 109.8125 C-153.20402344 109.65394531 -152.47054687 109.49539062 -151.71484375 109.33203125 C-151.14894531 109.22246094 -150.58304688 109.11289063 -150 109 C-150.99 109 -151.98 109 -153 109 C-153 108.34 -153 107.68 -153 107 C-151.02 106.01 -151.02 106.01 -149 105 C-151.31 104.34 -153.62 103.68 -156 103 C-156.33 101.35 -156.66 99.7 -157 98 C-154.69 98 -152.38 98 -150 98 C-150 97.34 -150 96.68 -150 96 C-151.32 95.67 -152.64 95.34 -154 95 C-154 94.01 -154 93.02 -154 92 C-151.03 91.01 -151.03 91.01 -148 90 C-148.33 88.68 -148.66 87.36 -149 86 C-149.66 86 -150.32 86 -151 86 C-151 85.34 -151 84.68 -151 84 C-148.525 83.505 -148.525 83.505 -146 83 C-146.99 82.67 -147.98 82.34 -149 82 C-149 81.34 -149 80.68 -149 80 C-148.34 79.67 -147.68 79.34 -147 79 C-147.33 78.34 -147.66 77.68 -148 77 C-146.5625 74.375 -146.5625 74.375 -145 72 C-145.99 71.505 -145.99 71.505 -147 71 C-145.6875 69.5 -145.6875 69.5 -144 68 C-143.01 68 -142.02 68 -141 68 C-140.89042969 67.43152344 -140.78085938 66.86304688 -140.66796875 66.27734375 C-139.62523672 61.19932353 -138.55314122 56.53891772 -136 52 C-133.3125 51.0625 -133.3125 51.0625 -131 51 C-133.85325271 59.71827218 -136.93312545 68.35518532 -140 77 C-139.01 77.495 -139.01 77.495 -138 78 C-138.66 79.32 -139.32 80.64 -140 82 C-138.68 83.32 -137.36 84.64 -136 86 C-133.69 85.01 -131.38 84.02 -129 83 C-129.33 82.01 -129.66 81.02 -130 80 C-129.34 79.34 -128.68 78.68 -128 78 C-128.70339566 75.49034386 -128.70339566 75.49034386 -130 73 C-132.04105639 72.11306697 -132.04105639 72.11306697 -134 72 C-134 71.67 -134 71.34 -134 71 C-131.69 70.67 -129.38 70.34 -127 70 C-127 69.34 -127 68.68 -127 68 C-125.37373596 66.61767557 -123.7074998 65.28062485 -122 64 C-122.99 63.67 -123.98 63.34 -125 63 C-125.33 61.35 -125.66 59.7 -126 58 C-124.68 57.34 -123.36 56.68 -122 56 C-122.37125 55.4225 -122.7425 54.845 -123.125 54.25 C-124 52 -124 52 -123.125 49.75 C-122.75375 49.1725 -122.3825 48.595 -122 48 C-122.99 47.505 -122.99 47.505 -124 47 C-123.48964169 42.6109185 -122.47785723 39.66291938 -120 36 C-118.1875 36.1875 -118.1875 36.1875 -116 37 C-114.25 39.5625 -114.25 39.5625 -113 42 C-113.99 42.495 -113.99 42.495 -115 43 C-114.81535634 47.34184202 -114.81535634 47.34184202 -113 51 C-112.64587656 52.32796291 -112.31478446 53.66216607 -112 55 C-111.67 55.99 -111.34 56.98 -111 58 C-112.98 57.67 -114.96 57.34 -117 57 C-116.505 60.465 -116.505 60.465 -116 64 C-115.25234375 63.44570312 -114.5046875 62.89140625 -113.734375 62.3203125 C-112.74953125 61.59585938 -111.7646875 60.87140625 -110.75 60.125 C-109.77546875 59.40570313 -108.8009375 58.68640625 -107.796875 57.9453125 C-104.13205412 55.39631697 -101.96838943 54.08646334 -97.5 53.6875 C-93.84184269 53.38898593 -93.84184269 53.38898593 -92.25 50.5 C-90 48 -90 48 -87.59375 47.80078125 C-86.18609375 47.80658203 -86.18609375 47.80658203 -84.75 47.8125 C-80.95374709 47.66571155 -79.4945433 47.46207329 -76.6796875 44.83203125 C-75.34789666 43.07740947 -74.06727426 41.28226904 -72.8515625 39.4453125 C-70.81258967 36.75249184 -69.01349618 35.48220822 -66 34 C-65.34 34 -64.68 34 -64 34 C-63.773125 33.154375 -63.54625 32.30875 -63.3125 31.4375 C-60.41580022 23.85090533 -56.54978708 20.27854564 -49.40234375 16.45703125 C-46.89386607 15.07268355 -46.89386607 15.07268355 -44.87890625 12.82421875 C-43 11 -43 11 -40 11 C-39.01 13.475 -39.01 13.475 -38 16 C-37.34 16 -36.68 16 -36 16 C-35.67 14.68 -35.34 13.36 -35 12 C-33.02 12.99 -33.02 12.99 -31 14 C-30.38511719 13.0615625 -29.77023437 12.123125 -29.13671875 11.15625 C-28.32085201 9.93713877 -27.50441615 8.71840828 -26.6875 7.5 C-26.08131836 6.56994141 -26.08131836 6.56994141 -25.46289062 5.62109375 C-24.38507533 4.02627762 -23.19816168 2.5064969 -22 1 C-21.01 1 -20.02 1 -19 1 C-17.02 4.465 -17.02 4.465 -15 8 C-14.46890625 7.7834375 -13.9378125 7.566875 -13.390625 7.34375 C-12.68421875 7.0653125 -11.9778125 6.786875 -11.25 6.5 C-10.55390625 6.2215625 -9.8578125 5.943125 -9.140625 5.65625 C-7 5 -7 5 -3 5 C-0.69 9.95 1.62 14.9 4 20 C6.31 19.67 8.62 19.34 11 19 C11.39771606 19.86334961 11.39771606 19.86334961 11.8034668 20.74414062 C16.08347196 29.89009942 16.08347196 29.89009942 22 38 C25.83632176 39.25975326 28.14669601 39.04279361 32.09765625 38.41796875 C35.16530182 37.97619476 36.21290839 38.07685805 38.75 39.75 C40.94124627 41.94124627 41.78185746 42.9460044 42 46 C42.99 43.69 43.98 41.38 45 39 C44.4225 39.185625 43.845 39.37125 43.25 39.5625 C40.79307475 40.04023546 39.35602466 39.75729364 37 39 C37.33 38.21625 37.66 37.4325 38 36.625 C39.11866511 34.15667503 39.11866511 34.15667503 39 32 C37.2779453 29.90528425 35.53445861 27.91756768 33.6875 25.9375 C33.14279053 25.35331299 32.59808105 24.76912598 32.03686523 24.16723633 C23.38203477 15.04349284 13.74971056 8.36737117 3 2 C2.01 1.34 1.02 0.68 0 0 Z M-21 6 C-22.31772362 7.59987856 -23.62901137 9.20505966 -24.9375 10.8125 C-25.66839844 11.70582031 -26.39929688 12.59914062 -27.15234375 13.51953125 C-29.15182691 15.93362919 -29.15182691 15.93362919 -30 19 C-29.09762063 21.38952431 -28.15290374 23.5482891 -27 25.8125 C-26.68256836 26.4418042 -26.36513672 27.0711084 -26.03808594 27.71948242 C-22.90779443 33.638509 -19.51649469 37.8278351 -13 40 C-12.06534041 42.26774779 -11.26955543 44.48993976 -10.5 46.8125 C-6.50722303 57.75532711 1.81580942 67.18046253 12 73 C12.66 73 13.32 73 14 73 C14.66 70.03 15.32 67.06 16 64 C14.35 64 12.7 64 11 64 C11 63.01 11 62.02 11 61 C12.32 61 13.64 61 15 61 C15 60.34 15 59.68 15 59 C14.34 59 13.68 59 13 59 C13 58.34 13 57.68 13 57 C13.99 57 14.98 57 16 57 C16 55.88625 16 54.7725 16 53.625 C16 48 16 48 18 45 C18.99 45.33 19.98 45.66 21 46 C22 49 22 49 22 52 C22.33 52.66 22.66 53.32 23 54 C22.01 54.495 22.01 54.495 21 55 C21.99 55.495 21.99 55.495 23 56 C23.72159424 57.64363134 24.39351421 59.31050386 25 61 C23.35 60.67 21.7 60.34 20 60 C20.66 61.32 21.32 62.64 22 64 C22.66 64 23.32 64 24 64 C23.625 65.9375 23.625 65.9375 23 68 C22.01 68.495 22.01 68.495 21 69 C27.4855144 72.99108579 33.38381402 74.25243947 41 73 C42.84967824 71.59135472 42.84967824 71.59135472 44 70 C43.39671875 69.93941406 42.7934375 69.87882812 42.171875 69.81640625 C41.37265625 69.73261719 40.5734375 69.64882812 39.75 69.5625 C38.96109375 69.48128906 38.1721875 69.40007812 37.359375 69.31640625 C35.15271556 69.02048007 33.11251991 68.70573121 31 68 C30.67 67.34 30.34 66.68 30 66 C30.680625 65.9175 31.36125 65.835 32.0625 65.75 C35.8746907 64.77667472 38.64070329 63.04192545 42 61 C42 59.68 42 58.36 42 57 C40.453125 57.3403125 40.453125 57.3403125 38.875 57.6875 C34.5162183 58.03901465 32.67269225 57.23944649 29 55 C29.75 53.0625 29.75 53.0625 31 51 C33.125 50.25 33.125 50.25 35 50 C31.03005684 46.14886561 31.03005684 46.14886561 25.9375 44.5 C21.94803546 43.82094221 20.72886142 41.9285342 18 39 C13.80815671 35.51420264 13.80815671 35.51420264 8.84765625 33.484375 C8.23792969 33.32453125 7.62820313 33.1646875 7 33 C6.505 32.01 6.505 32.01 6 31 C4.35 31 2.7 31 1 31 C1.144375 31.64066406 1.28875 32.28132813 1.4375 32.94140625 C2.53744397 38.06683962 3.33468012 42.7566782 3 48 C2.67 48.33 2.34 48.66 2 49 C1.92523438 48.40574219 1.85046875 47.81148437 1.7734375 47.19921875 C0.61600991 39.90288601 -2.19855208 34.28792958 -6 28 C-7.32 28.99 -8.64 29.98 -10 31 C-10.33 27.04 -10.66 23.08 -11 19 C-14.63 21.31 -18.26 23.62 -22 26 C-17.72706118 20.76564995 -13.18419194 16.32893185 -8 12 C-7.85304688 12.90492188 -7.85304688 12.90492188 -7.703125 13.828125 C-6.79053096 18.70578282 -6.12404277 21.83823388 -2 25 C-2 24.34 -2 23.68 -2 23 C-1.34 22.67 -0.68 22.34 0 22 C-1.98 17.71 -3.96 13.42 -6 9 C-9.63 10.32 -13.26 11.64 -17 13 C-17.28875 12.030625 -17.5775 11.06125 -17.875 10.0625 C-18.64214682 6.89335797 -18.64214682 6.89335797 -21 6 Z M-55 26 C-57.02212121 28.44863265 -58.74040031 30.95076257 -60.4609375 33.6171875 C-65.92312125 42.07386792 -73.77779257 49.82390607 -83 54 C-83.81597656 53.79761719 -84.63195312 53.59523437 -85.47265625 53.38671875 C-88.04063509 52.69405661 -88.04063509 52.69405661 -89.921875 54.36328125 C-90.52515625 55.00652344 -91.1284375 55.64976562 -91.75 56.3125 C-94.64192253 59.07420463 -96.47158595 60.41168814 -100.4375 61 C-106.13599733 61.85378183 -109.78643155 65.27452813 -114 69 C-113.34 69.99 -112.68 70.98 -112 72 C-110.68 72 -109.36 72 -108 72 C-108.33 72.99 -108.66 73.98 -109 75 C-108.01 75.33 -107.02 75.66 -106 76 C-105.67 76.66 -105.34 77.32 -105 78 C-104.34257812 77.16855469 -104.34257812 77.16855469 -103.671875 76.3203125 C-99.77399188 71.86785252 -97.17550061 69.60894921 -91.1875 69 C-80.14390151 67.76367262 -73.22603391 59.64384336 -66.38671875 51.515625 C-64 49 -64 49 -60.91796875 47.0234375 C-57.64436595 44.75338897 -56.41816592 42.89491828 -54.625 39.375 C-54.12226563 38.41335937 -53.61953125 37.45171875 -53.1015625 36.4609375 C-51.86381445 34.14512726 -51.86381445 34.14512726 -52 32 C-48.25 30.875 -48.25 30.875 -46 32 C-42.46713966 27.43672206 -42.67625483 23.50366792 -43 18 C-46.89812718 18 -52.18276485 23.61440689 -55 26 Z M-35 19 C-39.8681314 24.742984 -43.25966994 31.22934343 -46.4375 38 C-46.96839233 39.13103149 -46.96839233 39.13103149 -47.51000977 40.28491211 C-49.34840227 43.98944709 -49.34840227 43.98944709 -50 48 C-42.38169709 44.73969402 -38.66629069 36.00813088 -35 29 C-34.81824219 29.76183594 -34.63648438 30.52367187 -34.44921875 31.30859375 C-33.66090414 34.54674761 -32.83382517 37.7732905 -32 41 C-31.79503906 41.86625 -31.59007812 42.7325 -31.37890625 43.625 C-29.72207463 49.71720072 -27.35521944 51.7273659 -22 55 C-21.67 55.66 -21.34 56.32 -21 57 C-22.32 57.33 -23.64 57.66 -25 58 C-25 58.99 -25 59.98 -25 61 C-28.87385735 59.91728851 -31.97602595 58.6942733 -35 56 C-36.20752421 51.3028904 -36.22206441 46.82663519 -36 42 C-36.59039062 42.73992187 -37.18078125 43.47984375 -37.7890625 44.2421875 C-47.19535394 55.97512347 -47.19535394 55.97512347 -53 58 C-53.99 57.505 -53.99 57.505 -55 57 C-55.66 57.66 -56.32 58.32 -57 59 C-53.7 60.32 -50.4 61.64 -47 63 C-51.29 63.66 -55.58 64.32 -60 65 C-60.495 63.02 -60.495 63.02 -61 61 C-61.99 61.66 -62.98 62.32 -64 63 C-65.59874146 63.2292001 -67.20456922 63.41062648 -68.8125 63.5625 C-74.89869023 64.53241079 -79.07761657 67.24861657 -83.96411133 70.81274414 C-88.00743887 73.6855263 -91.11312983 74.4926519 -96 75 C-99.14748615 76.82053354 -99.14748615 76.82053354 -102 79 C-103.66026356 80.01059521 -105.32470102 81.01453001 -107 82 C-106.505 83.485 -106.505 83.485 -106 85 C-105.34 85 -104.68 85 -104 85 C-104 85.66 -104 86.32 -104 87 C-104.763125 86.67 -105.52625 86.34 -106.3125 86 C-108.99069135 84.82563314 -108.99069135 84.82563314 -112 85 C-111.67777813 88.0074041 -110.99223238 89.00776762 -108.8125 91.1875 C-105.76946481 93.14856712 -103.57318436 93.66761076 -100 94 C-100 94.66 -100 95.32 -100 96 C-102.97 96 -105.94 96 -109 96 C-107.75453595 99.73639216 -106.36595047 100.18756513 -103 102 C-105.475 102.495 -105.475 102.495 -108 103 C-107.67 104.32 -107.34 105.64 -107 107 C-107.61875 106.79375 -108.2375 106.5875 -108.875 106.375 C-109.926875 106.189375 -109.926875 106.189375 -111 106 C-111.99 106.99 -111.99 106.99 -113 108 C-106.72771068 112.16406681 -101.45781112 114.79712724 -94 116 C-93.49210937 115.28714844 -92.98421875 114.57429688 -92.4609375 113.83984375 C-90.33047909 110.87555424 -88.17169717 107.93418644 -86 105 C-85.319375 104.05833984 -85.319375 104.05833984 -84.625 103.09765625 C-72.9885986 88.22488071 -53.39705478 78.02832177 -35 75 C-19.51691556 73.33419264 -9.17948312 77.49506553 3 87 C4.485 87.99 4.485 87.99 6 89 C6.99 87.02 6.99 87.02 8 85 C7.34 84.67 6.68 84.34 6 84 C6.99 83.34 7.98 82.68 9 82 C10.03647024 80.69481525 11.04422943 79.36538653 12 78 C11.34 78 10.68 78 10 78 C10 77.34 10 76.68 10 76 C10.66 75.67 11.32 75.34 12 75 C9.50935112 74.31292445 7.62113708 74 5 74 C-4.71557061 67.613541 -11.4206406 59.00286681 -18.02734375 49.62109375 C-19.75009425 47.33205299 -21.49732776 45.52603065 -23.5625 43.5625 C-29.50296658 37.11558811 -31.4497643 27.20011479 -34 19 C-34.33 19 -34.66 19 -35 19 Z M1 24 C3.80228148 27.11364609 6.07826421 28.59219741 10 30 C10.99 30.66 11.98 31.32 13 32 C11.41553379 27.32902808 11.41553379 27.32902808 8 24 C4.37464024 23.7496423 4.37464024 23.7496423 1 24 Z M-17 44 C-15.68 46.97 -14.36 49.94 -13 53 C-11.59903754 49.92757947 -11.59903754 49.92757947 -13.4375 46.8125 C-13.953125 45.884375 -14.46875 44.95625 -15 44 C-15.66 44 -16.32 44 -17 44 Z M26 75 C25.67 75.99 25.34 76.98 25 78 C25.99 78 26.98 78 28 78 C27.67 77.01 27.34 76.02 27 75 C26.67 75 26.34 75 26 75 Z M-110 78 C-106 79 -106 79 -106 79 Z M26.3125 79.5 C25.879375 79.995 25.44625 80.49 25 81 C26.12534105 82.35618499 26.12534105 82.35618499 29.0625 82.0625 C30.031875 82.041875 31.00125 82.02125 32 82 C32 82.66 32 83.32 32 84 C30.02 84.99 30.02 84.99 28 86 C28.99 86.33 29.98 86.66 31 87 C31 87.66 31 88.32 31 89 C28.525 88.01 28.525 88.01 26 87 C26.66 88.32 27.32 89.64 28 91 C31.11920338 90.66579964 31.95474254 90.05211466 34.0625 87.625 C34.701875 86.75875 35.34125 85.8925 36 85 C36.98230498 83.9826127 37.97469597 82.97403883 39 82 C37.865625 81.71125 36.73125 81.4225 35.5625 81.125 C34.386875 80.75375 33.21125 80.3825 32 80 C31.67 79.34 31.34 78.68 31 78 C27.99740483 77.66781808 27.99740483 77.66781808 26.3125 79.5 Z M55 80 C55.11306697 81.95894361 55.11306697 81.95894361 56 84 C58.49034386 85.29660434 58.49034386 85.29660434 61 86 C60.67 84.35 60.34 82.7 60 81 C58.35 80.67 56.7 80.34 55 80 Z M13 84 C10.69 85.65 8.38 87.3 6 89 C6.33 89.99 6.66 90.98 7 92 C10.7952131 90.50902342 12.61042731 88.24299151 15 85 C14.34 84.67 13.68 84.34 13 84 Z M-44 85 C-46.53988527 86.1960364 -46.53988527 86.1960364 -49.3125 87.875 C-52.93512548 90.00014182 -55.85131976 91.34494522 -60 92 C-61.68076231 92.63028587 -63.34795544 93.29788106 -65 94 C-65.804375 94.28875 -66.60875 94.5775 -67.4375 94.875 C-72.2355348 96.9814543 -76.72457159 99.87538645 -80 104 C-80.80315654 107.14481791 -80.80315654 107.14481791 -81 110 C-80.071875 109.5359375 -80.071875 109.5359375 -79.125 109.0625 C-77.75 108.375 -76.375 107.6875 -75 107 C-75 107.66 -75 108.32 -75 109 C-75.598125 109.268125 -76.19625 109.53625 -76.8125 109.8125 C-80.89007511 112.02604078 -82.73437619 115.00818662 -85 119 C-84.01 119 -83.02 119 -82 119 C-82.99 119.99 -83.98 120.98 -85 122 C-84.67 122.66 -84.34 123.32 -84 124 C-83.55269531 123.59007812 -83.10539062 123.18015625 -82.64453125 122.7578125 C-82.03996094 122.21898437 -81.43539062 121.68015625 -80.8125 121.125 C-80.22082031 120.59132812 -79.62914062 120.05765625 -79.01953125 119.5078125 C-77 118 -77 118 -74.578125 117.0390625 C-67.5727542 114.21568579 -61.66146088 108.52695201 -58 102 C-57.67 101.67 -57.34 101.34 -57 101 C-57.70812492 104.70403803 -58.5855299 108.34211958 -59.5 112 C-61.05771424 118.64878029 -61.67677586 125.19000168 -62 132 C-60.24055528 129.36083292 -59.31354348 127.31373855 -58.25 124.375 C-56.18675014 119.06056854 -53.33394458 114.60084352 -50 110 C-51.72889482 113.62012719 -53.84526464 116.86757819 -56.07421875 120.1953125 C-56.37972656 120.79085937 -56.68523437 121.38640625 -57 122 C-56.67 122.66 -56.34 123.32 -56 124 C-55.01 122.68 -54.02 121.36 -53 120 C-53.24758057 120.5347998 -53.49516113 121.06959961 -53.75024414 121.62060547 C-54.8624945 124.03507299 -55.9626114 126.45487783 -57.0625 128.875 C-57.45244141 129.71675781 -57.84238281 130.55851562 -58.24414062 131.42578125 C-58.60830078 132.23144531 -58.97246094 133.03710938 -59.34765625 133.8671875 C-59.85824585 134.98262939 -59.85824585 134.98262939 -60.37915039 136.12060547 C-61.26442651 138.05881457 -61.26442651 138.05881457 -60 140 C-56.98365738 137.20038839 -54.9521563 134.49721964 -52.9765625 130.89453125 C-52.43 129.91033203 -51.8834375 128.92613281 -51.3203125 127.91210938 C-50.76085937 126.88923828 -50.20140625 125.86636719 -49.625 124.8125 C-46.07812746 118.36100404 -42.52036374 112.0497816 -38.26269531 106.03564453 C-35.90114222 102.22848489 -34 97.53022446 -34 93 C-36.99332739 93.9977758 -37.94766315 94.7522025 -40 97 C-38.68 95.02 -37.36 93.04 -36 91 C-36.495 90.01 -36.495 90.01 -37 89 C-38.98 89.66 -40.96 90.32 -43 91 C-43.495 90.01 -43.495 90.01 -44 89 C-45.98 89.99 -45.98 89.99 -48 91 C-46.02 89.35 -44.04 87.7 -42 86 C-42.66 85.67 -43.32 85.34 -44 85 Z M63 85 C62.67 85.66 62.34 86.32 62 87 C63.32 86.67 64.64 86.34 66 86 C65.01 85.67 64.02 85.34 63 85 Z M-140 93 C-139.67 94.65 -139.34 96.3 -139 98 C-134.29607688 98.95940187 -134.29607688 98.95940187 -129.625 98.3125 C-127.59342039 96.67160878 -127.51867754 95.49677131 -127 93 C-127.77085937 93.08378906 -128.54171875 93.16757813 -129.3359375 93.25390625 C-130.84027344 93.40666016 -130.84027344 93.40666016 -132.375 93.5625 C-133.87160156 93.71912109 -133.87160156 93.71912109 -135.3984375 93.87890625 C-138 94 -138 94 -140 93 Z M-4 94 C-2.6910428 97.12197478 -2.6910428 97.12197478 0 99 C-1.3089572 95.87802522 -1.3089572 95.87802522 -4 94 Z M-135 102 C-135 102.99 -135 103.98 -135 105 C-134.01 105 -133.02 105 -132 105 C-132 104.34 -132 103.68 -132 103 C-132.99 102.67 -133.98 102.34 -135 102 Z M-10 102 C-10.77528479 105.42573937 -11.11918778 108.57239245 -11.09765625 112.08203125 C-11.09443359 113.01337891 -11.09121094 113.94472656 -11.08789062 114.90429688 C-11.07951172 115.86400391 -11.07113281 116.82371094 -11.0625 117.8125 C-11.05798828 118.79154297 -11.05347656 119.77058594 -11.04882812 120.77929688 C-11.03708684 123.18626111 -11.02066419 125.59309857 -11 128 C-9.68 127.34 -8.36 126.68 -7 126 C-7.165 126.495 -7.33 126.99 -7.5 127.5 C-8.20688818 131.03444089 -8.06005155 134.39690701 -8 138 C-7.34 138 -6.68 138 -6 138 C-5.67 136.35 -5.34 134.7 -5 133 C-5 138.94 -5 144.88 -5 151 C-4.34 151 -3.68 151 -3 151 C-2.67 148.69 -2.34 146.38 -2 144 C1.465 143.505 1.465 143.505 5 143 C5 140.03 5 137.06 5 134 C5.12375 136.1965625 5.12375 136.1965625 5.25 138.4375 C5.769302 143.87079403 7.50187941 148.18966547 10 153 C11.68681738 151.89958081 11.68681738 151.89958081 13 150 C12.60756091 144.71655166 10.60528269 140.24994592 8.5078125 135.4609375 C8.16120575 134.65766022 7.814599 133.85438293 7.45748901 133.02676392 C6.72605298 131.33609243 5.99129677 129.64685392 5.25341797 127.95898438 C4.12725342 125.38016014 3.01408989 122.79600519 1.90234375 120.2109375 C1.1882686 118.56477055 0.47344992 116.91892589 -0.2421875 115.2734375 C-0.57354706 114.50357513 -0.90490662 113.73371277 -1.24630737 112.94052124 C-1.56318512 112.21942169 -1.88006287 111.49832214 -2.20654297 110.75537109 C-2.48110321 110.12504974 -2.75566345 109.49472839 -3.0385437 108.8453064 C-4.17698271 106.53839828 -4.17698271 106.53839828 -7 103 C-7.33 107.29 -7.66 111.58 -8 116 C-8.33 111.38 -8.66 106.76 -9 102 C-9.33 102 -9.66 102 -10 102 Z M-140 105 C-139.67 106.32 -139.34 107.64 -139 109 C-138.01 108.67 -137.02 108.34 -136 108 C-136 107.34 -136 106.68 -136 106 C-137.32 105.67 -138.64 105.34 -140 105 Z M64 104 C62.35 104.66 60.7 105.32 59 106 C59 106.33 59 106.66 59 107 C60.65 107 62.3 107 64 107 C64 106.01 64 105.02 64 104 Z M2 109 C3 111 3 111 3 111 Z M24 110 C24.33 110.99 24.66 111.98 25 113 C27.64 113 30.28 113 33 113 C30.23776722 110.23776722 27.79293383 110.42143709 24 110 Z M-133 110 C-133.66 110.66 -134.32 111.32 -135 112 C-134.01 112 -133.02 112 -132 112 C-132.33 111.34 -132.66 110.68 -133 110 Z M-13 115 C-13 117.31 -13 119.62 -13 122 C-12.67 122 -12.34 122 -12 122 C-12 119.69 -12 117.38 -12 115 C-12.33 115 -12.66 115 -13 115 Z M-136 116 C-134.68 116.33 -133.36 116.66 -132 117 C-132.33 117.99 -132.66 118.98 -133 120 C-131.35 119.67 -129.7 119.34 -128 119 C-127.67 118.01 -127.34 117.02 -127 116 C-130.32534757 114.89155081 -132.62182575 115.15545644 -136 116 Z M-101 117 C-101.33 117.99 -101.66 118.98 -102 120 C-100.35 120 -98.7 120 -97 120 C-96.67 119.01 -96.34 118.02 -96 117 C-97.65 117 -99.3 117 -101 117 Z M77 127 C81 128 81 128 81 128 Z M-63 132 C-62 135 -62 135 -62 135 Z M-86 139 C-86.33 139.66 -86.66 140.32 -87 141 C-85.68 140.67 -84.36 140.34 -83 140 C-83.99 139.67 -84.98 139.34 -86 139 Z M-62 140 C-61 142 -61 142 -61 142 Z M18 148 C18 148.33 18 148.66 18 149 C19.98 149 21.96 149 24 149 C24 148.67 24 148.34 24 148 C22.02 148 20.04 148 18 148 Z M-102 154 C-102 154.33 -102 154.66 -102 155 C-100.35 155 -98.7 155 -97 155 C-97 154.67 -97 154.34 -97 154 C-98.65 154 -100.3 154 -102 154 Z M-28 154 C-28 154.33 -28 154.66 -28 155 C-23.38 155 -18.76 155 -14 155 C-14 154.67 -14 154.34 -14 154 C-18.62 154 -23.24 154 -28 154 Z " fill="#010101" transform="translate(298,134)"/>
<path d="M0 0 C7.33404533 0.53145256 13.96524395 1.87352431 21 4 C20.67 6.97 20.34 9.94 20 13 C18.68 13 17.36 13 16 13 C15.67 15.31 15.34 17.62 15 20 C19.455 17.525 19.455 17.525 24 15 C23.01 14.01 23.01 14.01 22 13 C22.2421875 11.0546875 22.2421875 11.0546875 22.875 8.875 C23.07867187 8.15054688 23.28234375 7.42609375 23.4921875 6.6796875 C23.74355469 5.84824219 23.74355469 5.84824219 24 5 C31.05909078 6.12276571 38.03843148 7.37563401 45 9 C45.82592695 11.89074433 46.0444946 13.78247084 45.4375 16.75 C44 19 44 19 41.25 19.625 C40.1775 19.74875 39.105 19.8725 38 20 C35.98473831 20.96887581 33.98166034 21.9641321 32 23 C31.34 23 30.68 23 30 23 C30.24234375 23.62567871 30.4846875 24.25135742 30.734375 24.89599609 C31.82637063 27.7210098 32.91324432 30.54796664 34 33.375 C34.57234375 34.85226563 34.57234375 34.85226563 35.15625 36.359375 C35.5171875 37.30039063 35.878125 38.24140625 36.25 39.2109375 C36.58515625 40.08024902 36.9203125 40.94956055 37.265625 41.84521484 C38 44 38 44 38 46 C38.763125 46.144375 39.52625 46.28875 40.3125 46.4375 C43 47 43 47 46 48 C48.04878988 46.97408307 48.04878988 46.97408307 50.125 45.359375 C50.91390625 44.78316406 51.7028125 44.20695312 52.515625 43.61328125 C53.33546875 42.99839844 54.1553125 42.38351563 55 41.75 C55.81984375 41.15058594 56.6396875 40.55117187 57.484375 39.93359375 C63.81900289 35.63547611 63.81900289 35.63547611 68 29.5 C69.00771694 26.98070765 69.97252568 25.75100055 72 24 C75.91828502 25.70944787 79.14918873 28.26881345 82.5 30.875 C83.35271484 31.52662109 83.35271484 31.52662109 84.22265625 32.19140625 C87.39943294 34.6458532 90.14431412 37.14431412 93 40 C88.71 51.55 84.42 63.1 80 75 C80.99 75.99 81.98 76.98 83 78 C83 78.99 83 79.98 83 81 C84.0621875 80.46890625 85.124375 79.9378125 86.21875 79.390625 C93.14583333 75.92708333 100.07291667 72.46354167 107 69 C107 67.68 107 66.36 107 65 C109.8125 63.4375 109.8125 63.4375 113 62 C116.51275526 63.17091842 116.65017234 63.66338067 118.26171875 66.81640625 C118.65810547 67.58017578 119.05449219 68.34394531 119.46289062 69.13085938 C119.86701172 69.93330078 120.27113281 70.73574219 120.6875 71.5625 C121.10322266 72.36880859 121.51894531 73.17511719 121.94726562 74.00585938 C122.97363362 75.9996087 123.99071198 77.99756497 125 80 C122.28922757 82.97126708 119.86848614 83.88243734 116 85 C115.34 84.34 114.68 83.68 114 83 C111.03 84.485 111.03 84.485 108 86 C109.98 90.455 109.98 90.455 112 95 C114.31 93.68 116.62 92.36 119 91 C118.67 90.01 118.34 89.02 118 88 C124.75 84 124.75 84 127 84 C128.54074107 86.73929378 130.05392858 89.49287839 131.5625 92.25 C132.21895508 93.41595703 132.21895508 93.41595703 132.88867188 94.60546875 C133.29794922 95.35957031 133.70722656 96.11367187 134.12890625 96.890625 C134.51119385 97.58188477 134.89348145 98.27314453 135.28735352 98.98535156 C136.16779322 101.4743507 136.08681623 102.60198849 135 105 C131.4375 106.75 131.4375 106.75 128 108 C127.67 107.01 127.34 106.02 127 105 C123.17272954 106.86703733 119.3663409 108.77323671 115.5625 110.6875 C113.92958008 111.48317383 113.92958008 111.48317383 112.26367188 112.29492188 C111.22919922 112.82021484 110.19472656 113.34550781 109.12890625 113.88671875 C108.17056885 114.36326904 107.21223145 114.83981934 106.22485352 115.33081055 C103.4300645 117.42759234 103.55447592 118.66472805 103 122 C99.4375 123.8125 99.4375 123.8125 96 125 C93.16080782 120.67476255 90.52784712 116.27108233 88.125 111.6875 C87.69445312 110.86636719 87.26390625 110.04523438 86.8203125 109.19921875 C86 107 86 107 87 104 C90.5625 102.3125 90.5625 102.3125 94 101 C94.33 101.99 94.66 102.98 95 104 C95.94875 103.505 96.8975 103.01 97.875 102.5 C101 101 101 101 103 101 C102.71125 100.44570312 102.4225 99.89140625 102.125 99.3203125 C101.75375 98.59585938 101.3825 97.87140625 101 97.125 C100.62875 96.40570313 100.2575 95.68640625 99.875 94.9453125 C99 93 99 93 99 91 C98.05125 91.495 97.1025 91.99 96.125 92.5 C93 94 93 94 91 94 C91.33 95.65 91.66 97.3 92 99 C86.375 102 86.375 102 83 102 C82.67128906 101.23091309 82.67128906 101.23091309 82.3359375 100.44628906 C77.41308757 89.2748217 72.59514297 81.34112122 62.18359375 74.65527344 C60.40485068 73.51240541 58.6949303 72.26383761 57 71 C57 66.31908701 57.99645871 65.37898396 61 62 C63 63 65 64 67 65 C67 63.68 67 62.36 67 61 C66.4225 60.731875 65.845 60.46375 65.25 60.1875 C63 59 63 59 60.9375 57.3125 C60.298125 56.879375 59.65875 56.44625 59 56 C58.01 56.33 57.02 56.66 56 57 C56.66 57.33 57.32 57.66 58 58 C57.52653243 62.26120815 54.97938092 64.13466237 52 67 C51.2678125 66.27554688 50.535625 65.55109375 49.78125 64.8046875 C39.27732643 55.18357232 27.7509357 52.61155927 14 50 C14.254496 48.51793505 14.52911762 47.03931385 14.8125 45.5625 C15.03873047 44.32693359 15.03873047 44.32693359 15.26953125 43.06640625 C15.51058594 42.38449219 15.75164062 41.70257813 16 41 C16.99 40.67 17.98 40.34 19 40 C18.01 37.36 17.02 34.72 16 32 C13.525 32.495 13.525 32.495 11 33 C11 34.98 11 36.96 11 39 C11.66 39.33 12.32 39.66 13 40 C12.67 42.64 12.34 45.28 12 48 C8.18970306 49.40673555 5.41909895 48.56566158 1.5625 47.5625 C-4.47379683 46.0027153 -8.39832231 45.06525651 -14 48 C-18.7652097 48.82308168 -22.12691789 48.48504562 -26.375 46.125 C-30.03243312 42.61995993 -30.93776212 37.79870623 -32 33 C-33.32 33 -34.64 33 -36 33 C-35.505 36.96 -35.505 36.96 -35 41 C-33.68 40.67 -32.36 40.34 -31 40 C-29.8422494 43.47325181 -29.93133348 46.36067448 -30 50 C-31.05574219 50.13792969 -32.11148438 50.27585938 -33.19921875 50.41796875 C-47.19667416 52.66735967 -57.41216097 59.13159162 -69 67 C-71.2005963 68.4709278 -73.40956554 69.92633414 -75.625 71.375 C-76.42164063 71.91898437 -77.21828125 72.46296875 -78.0390625 73.0234375 C-80 74 -80 74 -83 73 C-83.20826416 73.61383545 -83.41652832 74.2276709 -83.63110352 74.86010742 C-86.10093423 81.61458835 -89.41906102 86.7561056 -93.9375 92.3125 C-94.54529297 93.08400391 -95.15308594 93.85550781 -95.77929688 94.65039062 C-98.98484898 98.67894317 -102.26859963 102.45269149 -106 106 C-110.58984375 102.58203125 -110.58984375 102.58203125 -112 101 C-112.11448486 100.21633057 -112.22896973 99.43266113 -112.34692383 98.62524414 C-113.54613697 93.80463144 -117.94627786 91.52222762 -121.75 88.625 C-122.56210938 87.97144531 -123.37421875 87.31789063 -124.2109375 86.64453125 C-125.00242188 86.03222656 -125.79390625 85.41992188 -126.609375 84.7890625 C-127.33092773 84.22912598 -128.05248047 83.66918945 -128.79589844 83.09228516 C-131.61610887 81.69467534 -133.02221568 82.22049647 -136 83 C-138.40932935 81.66729071 -139.98426996 79.92197516 -142 78 C-138.26527779 71.86073061 -133.92339581 66.22495323 -129.4375 60.625 C-128.88360596 59.92310547 -128.32971191 59.22121094 -127.7590332 58.49804688 C-123.92073149 53.76095667 -120.8742216 50.36581002 -114.5625 49.5625 C-110.33996212 50.08105728 -108.2759755 51.33350832 -105 54 C-102.8480563 57.22791555 -102.79913557 58.28400809 -103 62 C-102.34 61.67 -101.68 61.34 -101 61 C-94.47512447 60.44704445 -91.47285883 61.49737035 -86 65 C-85.34 65 -84.68 65 -84 65 C-85.95104744 61.30515924 -87.95790937 57.64531091 -90 54 C-90.5878125 52.95070312 -91.175625 51.90140625 -91.78125 50.8203125 C-92.66296875 49.33144531 -92.66296875 49.33144531 -93.5625 47.8125 C-94.10003906 46.89082031 -94.63757813 45.96914062 -95.19140625 45.01953125 C-95.78824219 44.35308594 -96.38507813 43.68664062 -97 43 C-99.5469712 42.84889879 -99.5469712 42.84889879 -102 43 C-104.3125 40 -104.3125 40 -106 37 C-104.57942665 33.4859007 -103.07518861 32.11169542 -99.81640625 30.23046875 C-98.55521973 29.49038574 -98.55521973 29.49038574 -97.26855469 28.73535156 C-95.92905762 27.96916504 -95.92905762 27.96916504 -94.5625 27.1875 C-92.74545118 26.12479585 -90.92904056 25.06099969 -89.11328125 23.99609375 C-88.23494629 23.4841748 -87.35661133 22.97225586 -86.45166016 22.44482422 C-81.88777772 19.75521495 -77.43850999 16.89113953 -73 14 C-69.39018393 17.45055948 -67.25639599 20.56779359 -65 25 C-65 25.99 -65 26.98 -65 28 C-66.64453125 29.421875 -66.64453125 29.421875 -68.8125 30.75 C-69.52019531 31.19859375 -70.22789062 31.6471875 -70.95703125 32.109375 C-73 33 -73 33 -76 32 C-76.495 31.01 -76.495 31.01 -77 30 C-80.54518884 31.39759905 -80.54518884 31.39759905 -84 33 C-83.34 35.31 -82.68 37.62 -82 40 C-81.30132812 39.566875 -80.60265625 39.13375 -79.8828125 38.6875 C-78.97273438 38.130625 -78.06265625 37.57375 -77.125 37 C-76.22007812 36.443125 -75.31515625 35.88625 -74.3828125 35.3125 C-72 34 -72 34 -70 34 C-68.61061923 35.96147874 -67.2739589 37.96166576 -66 40 C-67.49835228 44.66154042 -70.88463591 45.86610751 -75 48 C-73.68 50.31 -72.36 52.62 -71 55 C-68.69 53.68 -66.38 52.36 -64 51 C-64.99 48.525 -64.99 48.525 -66 46 C-63.03 44.02 -60.06 42.04 -57 40 C-56.236875 40.66 -55.47375 41.32 -54.6875 42 C-52.15722061 44.29850538 -52.15722061 44.29850538 -49 44 C-49.19335938 43.17757812 -49.38671875 42.35515625 -49.5859375 41.5078125 C-54 22.58415842 -54 22.58415842 -54 17 C-55.32 17.33 -56.64 17.66 -58 18 C-58.33 14.7 -58.66 11.4 -59 8 C-30.10603414 1.48868375 -30.10603414 1.48868375 -22.84765625 5.05859375 C-20.09171067 7.24389648 -18.19210163 9.4253965 -17.76171875 12.953125 C-17.5765776 18.68275646 -18.35394917 21.55637555 -22 26 C-21.236875 26.185625 -20.47375 26.37125 -19.6875 26.5625 C-15.81384272 28.63445622 -15.43454737 30.92286538 -14 35 C-13.67 34.01 -13.34 33.02 -13 32 C-11.35 31.67 -9.7 31.34 -8 31 C-7.566875 31.9590625 -7.566875 31.9590625 -7.125 32.9375 C-6.17176549 35.15206079 -6.17176549 35.15206079 -4 36 C-3.88930176 35.43079834 -3.77860352 34.86159668 -3.66455078 34.27514648 C-3.15449556 31.66197597 -2.63978171 29.04974335 -2.125 26.4375 C-1.95097656 25.54224609 -1.77695312 24.64699219 -1.59765625 23.72460938 C-0.61036519 18.73330458 0.51761254 13.86783989 2 9 C1.01 9 0.02 9 -1 9 C-0.67 6.03 -0.34 3.06 0 0 Z M-40 14 C-39.67 16.97 -39.34 19.94 -39 23 C-36.15540687 24.26545576 -36.15540687 24.26545576 -33.875 23.375 C-31.78285973 22.10948237 -31.78285973 22.10948237 -31.125 19.5625 C-30.73353649 16.75556583 -30.73353649 16.75556583 -33 14 C-36.58357241 13.74984127 -36.58357241 13.74984127 -40 14 Z M66 48 C66.79117904 49.99983534 66.79117904 49.99983534 68 52 C68.99 52.33 69.98 52.66 71 53 C71.99 50.03 72.98 47.06 74 44 C70.71841516 44 68.62118892 46.17656423 66 48 Z M-121.6875 66.5 C-122.120625 66.995 -122.55375 67.49 -123 68 C-121.86695008 71.39914975 -120.87481525 72.05254451 -118 74 C-116.00016466 73.20882096 -116.00016466 73.20882096 -114 72 C-113.67 71.01 -113.34 70.02 -113 69 C-114.81222534 66.9375006 -114.81222534 66.9375006 -117 65 C-120.00259517 64.66781808 -120.00259517 64.66781808 -121.6875 66.5 Z M-106.38671875 75.3125 C-106.81597656 75.869375 -107.24523437 76.42625 -107.6875 77 C-108.450625 77.99 -109.21375 78.98 -110 80 C-107.69 81.65 -105.38 83.3 -103 85 C-100.95163118 84.43637698 -100.95163118 84.43637698 -99 83 C-98.18415432 79.94091587 -98.18415432 79.94091587 -98 77 C-101.97864276 73.518622 -101.97864276 73.518622 -106.38671875 75.3125 Z " fill="#000000" transform="translate(270,79)"/>
<path d="M0 0 C5.99932374 1.8331267 11.44920563 4.07321751 17 7 C16.125 12.75 16.125 12.75 15 15 C13.68 14.67 12.36 14.34 11 14 C10.87753906 14.721875 10.75507813 15.44375 10.62890625 16.1875 C9.81040671 19.8478706 8.34335944 23.07562263 6.83984375 26.5 C5.94845162 29.15344634 5.84617032 31.22114117 6 34 C7.98 34.33 9.96 34.66 12 35 C14.64 29.72 17.28 24.44 20 19 C19.34 18.01 18.68 17.02 18 16 C19.375 12.3125 19.375 12.3125 21 9 C25.92195435 10.58503615 30.71595842 12.28847822 35.5 14.25 C51.13046412 20.27291458 67.41494847 24.42761032 84.0324707 26.49438477 C91.6905497 27.55101504 97.13288483 29.91233751 102.4375 35.625 C104 38 104 38 105 41 C105.37511719 40.45730469 105.75023437 39.91460937 106.13671875 39.35546875 C110.03452741 33.90639115 113.25748649 30.40723966 120 29 C126.32967623 28.44867142 131.35858652 28.79213743 137 32 C140.20675216 34.7791852 142.21441053 37.19451295 144 41 C144.7425 39.205625 144.7425 39.205625 145.5 37.375 C147.90477186 32.53969087 151.33108958 29.63538107 156 27 C161.27819403 25.2370187 167.8493361 24.93823781 173.1328125 26.71875 C178.942288 29.83725633 181.74816127 33.75827055 183.75 39.875 C185.68863581 47.07564728 185.77278206 53.42762701 182 60 C177.01442069 65.83583314 171.659018 67.70960175 164.0625 68.3125 C158.68069605 68.1147161 153.99026787 67.11115182 150.19921875 63.08984375 C148.22415098 60.49255893 146.45987989 57.91975978 145 55 C144.649375 56.19625 144.29875 57.3925 143.9375 58.625 C142.10300211 63.4825437 139.34633684 66.23826513 135 69 C128.62386406 71.82021397 121.42752262 71.57368668 114.87890625 69.24609375 C109.15696366 66.30513831 106.73049496 61.53253127 104 56 C103.67128906 56.54269531 103.34257812 57.08539063 103.00390625 57.64453125 C99.71476604 62.59161206 97.0698758 65.1159673 91.265625 66.60546875 C83.45623307 67.9653801 71.14770117 67.57385058 64 64 C64.33 61.36 64.66 58.72 65 56 C65.99 55.67 66.98 55.34 68 55 C68.99 47.74 69.98 40.48 71 33 C70.34 33 69.68 33 69 33 C68.67 34.98 68.34 36.96 68 39 C65.21176345 40.0326802 64.1322726 40.04509293 61.25 39.0625 C60.5075 38.711875 59.765 38.36125 59 38 C59.33 35.69 59.66 33.38 60 31 C59.01 31 58.02 31 57 31 C56.16193384 33.93622464 55.32937556 36.87382067 54.5 39.8125 C54.26152344 40.64587891 54.02304688 41.47925781 53.77734375 42.33789062 C53.55175781 43.14033203 53.32617188 43.94277344 53.09375 44.76953125 C52.88427734 45.50792236 52.67480469 46.24631348 52.45898438 47.00708008 C51.88778387 49.14639637 51.88778387 49.14639637 52 52 C52.99 52.33 53.98 52.66 55 53 C54.34 55.64 53.68 58.28 53 61 C48.01155691 60.3900874 43.39844654 59.36525565 38.5625 57.9375 C36.70818359 57.39416016 36.70818359 57.39416016 34.81640625 56.83984375 C33.88699219 56.56269531 32.95757812 56.28554688 32 56 C32.875 50.25 32.875 50.25 34 48 C35.32 48 36.64 48 38 48 C39.98 41.07 41.96 34.14 44 27 C43.01 26.67 42.02 26.34 41 26 C40.67 27.98 40.34 29.96 40 32 C37.36 31.67 34.72 31.34 32 31 C31.67 29.35 31.34 27.7 31 26 C30.48050781 27.02480469 29.96101563 28.04960937 29.42578125 29.10546875 C28.72185004 30.46640243 28.01739502 31.82706527 27.3125 33.1875 C26.97283203 33.86103516 26.63316406 34.53457031 26.28320312 35.22851562 C23.57761894 40.4121115 20.80577944 45.06474019 15 47 C8.49225512 47.78298311 3.39332204 46.79484877 -2 43 C-6.50242257 38.15123723 -7.4375 34.91003159 -7.4375 28.42578125 C-6.80192237 23.44898145 -5.01497182 19.0765025 -3.04663086 14.48388672 C-1.53592305 10.88780796 -0.6304982 8.72333302 -2 5 C-1.0625 2.25 -1.0625 2.25 0 0 Z M84 35 C82.02462968 42.63809855 81.42522771 50.1332874 81 58 C83.38498874 58.20360373 83.38498874 58.20360373 86 58 C89.68898054 54.73022179 91.2425331 52.32679657 91.9375 47.4375 C92.13887206 43.80670067 92.02675851 41.13226315 90 38 C87.26287384 35.85695816 87.26287384 35.85695816 84 35 Z M161 36 C158.02456432 40.46315352 158.49888121 44.76443055 159 50 C160.33207558 53.45128672 161.40996081 55.40996081 164 58 C166.0480428 57.9049261 166.0480428 57.9049261 168 57 C170.70813058 52.93780412 170.52980034 49.76820302 170 45 C168.96637171 41.45898954 167.6417172 38.6417172 165 36 C163.68 36 162.36 36 161 36 Z M122 39 C119.32671543 44.457956 117.85250935 48.82579489 119.5390625 54.9609375 C120.57422799 57.7479215 121.35638463 59.63796636 124 61.125 C126.08094955 61.17696354 126.08094955 61.17696354 127.6875 59.75 C130.90335177 55.46219764 130.47516625 50.10803715 130 45 C128.67014431 41.4952235 128.67014431 41.4952235 127 39 C125.35 39 123.7 39 122 39 Z " fill="#010101" transform="translate(145,302)"/>
<path d="M0 0 C2.71023634 2.28676191 2.9798943 3.92244944 3.875 7.375 C4.01707801 11.49526217 3.12093671 13.52166379 1 17 C1.8971875 17.0928125 1.8971875 17.0928125 2.8125 17.1875 C5.87143458 18.3236757 6.55041099 20.17330142 8 23 C8.99 22.01 9.98 21.02 11 20 C11.99 20.33 12.98 20.66 14 21 C15.3048048 27.9984985 15.3048048 27.9984985 14.125 31.875 C10.91024989 35.08975011 7.45640981 35.6777552 3 36 C-0.89803354 35.30701626 -1.77172129 34.30002344 -4.1875 31.125 C-6 28 -6 28 -7.0625 25.6875 C-7.95072841 23.64102129 -7.95072841 23.64102129 -11 23 C-10.29231642 25.95800528 -10.29231642 25.95800528 -9 29 C-8.319375 29.309375 -7.63875 29.61875 -6.9375 29.9375 C-6.298125 30.288125 -5.65875 30.63875 -5 31 C-4.59560832 33.32207298 -4.25853433 35.65719921 -4 38 C-6.62394306 38.83679277 -9.24904384 39.66956942 -11.875 40.5 C-12.62136719 40.73847656 -13.36773437 40.97695313 -14.13671875 41.22265625 C-19.7734375 43 -19.7734375 43 -22 43 C-22.38922918 41.71254964 -22.76098036 40.41980403 -23.125 39.125 C-23.33382813 38.40570313 -23.54265625 37.68640625 -23.7578125 36.9453125 C-23.83773438 36.30335938 -23.91765625 35.66140625 -24 35 C-23.34 34.34 -22.68 33.68 -22 33 C-22.54140625 31.22882813 -22.54140625 31.22882813 -23.09375 29.421875 C-23.56278767 27.86466995 -24.03152181 26.30737346 -24.5 24.75 C-24.73847656 23.97269531 -24.97695313 23.19539063 -25.22265625 22.39453125 C-25.44824219 21.64042969 -25.67382812 20.88632812 -25.90625 20.109375 C-26.11572266 19.41811523 -26.32519531 18.72685547 -26.54101562 18.01464844 C-27 16 -27 16 -27 12 C-28.32 12.33 -29.64 12.66 -31 13 C-31.66 10.36 -32.32 7.72 -33 5 C-22.94724384 0.8113516 -10.58125707 -4.30424016 0 0 Z M-16 8 C-15.34 10.64 -14.68 13.28 -14 16 C-12.35 15.67 -10.7 15.34 -9 15 C-7.99782936 11.41672247 -7.99782936 11.41672247 -9 8 C-11.31 8 -13.62 8 -16 8 Z " fill="#010101" transform="translate(357,322)"/>
<path d="M0 0 C5.2216357 3.00378631 9.83744292 7.76232875 11.75 13.5 C12.46197308 21.75888776 10.04012978 27.91858777 4.875 34.375 C0.91301465 38.63339323 -2.84055285 40.627248 -8.6875 40.875 C-16.96016902 40.52915263 -22.70117972 36.32171308 -28.25 30.5 C-31.23936879 25.76683274 -30.96136015 19.73399868 -29.78515625 14.38671875 C-27.70634556 8.05188145 -23.93685445 3.4370346 -18.5625 -0.4375 C-12.42837282 -2.40505023 -5.98280981 -2.61893426 0 0 Z M-13.73046875 15.41015625 C-16.43421213 19.12867221 -17.39736959 21.19823531 -16.875 25.8125 C-16.66875 26.699375 -16.4625 27.58625 -16.25 28.5 C-14.43372532 29.24287752 -14.43372532 29.24287752 -12.25 29.5 C-7.45276789 26.84862655 -4.03285648 22.63882162 -2.25 17.5 C-1.91534111 13.79059225 -1.91534111 13.79059225 -2.25 10.5 C-3.29312878 9.25238711 -3.29312878 9.25238711 -5.58203125 9.20703125 C-9.8076945 9.67104991 -11.17537064 12.24272525 -13.73046875 15.41015625 Z " fill="#000000" transform="translate(130.25,290.5)"/>
<path d="M0 0 C1.56718223 2.69873027 2.55165933 5.55548058 3.5625 8.5 C4.11187326 10.07801415 4.67509235 11.65129534 5.25390625 13.21875 C5.49439697 13.91935547 5.7348877 14.61996094 5.98266602 15.34179688 C6.88859002 17.21049118 6.88859002 17.21049118 9.10913086 17.73632812 C9.73311768 17.82333984 10.35710449 17.91035156 11 18 C11.33 19.98 11.66 21.96 12 24 C11.34 24 10.68 24 10 24 C11.9254644 26.2236068 11.9254644 26.2236068 15 27 C16.1875 30.5625 16.1875 30.5625 17 34 C14.37690901 35.17112946 11.75171858 36.33705964 9.125 37.5 C8.37863281 37.83386719 7.63226563 38.16773438 6.86328125 38.51171875 C6.14785156 38.82753906 5.43242187 39.14335937 4.6953125 39.46875 C4.03547363 39.76201172 3.37563477 40.05527344 2.69580078 40.35742188 C1 41 1 41 -1 41 C-3.08387097 36.58709677 -3.08387097 36.58709677 -2.6875 33.8125 C-2 32 -2 32 -1 30 C-5.62 31.98 -10.24 33.96 -15 36 C-18.92011412 32.07988588 -18.92011412 32.07988588 -19.21875 28.04296875 C-19.13449798 22.96020247 -17.81985746 18.19393158 -16.5 13.3125 C-16.28085937 12.37599609 -16.06171875 11.43949219 -15.8359375 10.47460938 C-14.05386822 3.90440134 -14.05386822 3.90440134 -11.171875 1.43115234 C-7.48843056 -0.58626048 -3.85811393 -2.22400943 0 0 Z M-8 16 C-8.66 18.97 -9.32 21.94 -10 25 C-8.35 24.67 -6.7 24.34 -5 24 C-5.44703986 19.52116304 -5.44703986 19.52116304 -8 16 Z " fill="#010101" transform="translate(387,307)"/>
<path d="M0 0 C3.60239038 3.13756581 3.9957244 3.97862202 5 9 C1.37 10.98 -2.26 12.96 -6 15 C-5.67 15.66 -5.34 16.32 -5 17 C-4.360625 16.505 -3.72125 16.01 -3.0625 15.5 C1.04911381 13.48614834 4.49549347 13.38574911 9 14 C12.23300086 15.47593517 14.72160787 17.26592945 17 20 C18.35772166 24.07316498 18.51865848 27.7411564 18 32 C15.56908812 36.86182377 12.28718414 39.80741607 8 43 C5.03650719 43.98783094 3.0287337 44.13410525 -0.0625 44.125 C-1.37927734 44.12886719 -1.37927734 44.12886719 -2.72265625 44.1328125 C-5 44 -5 44 -7 43 C-6.34 40.03 -5.68 37.06 -5 34 C-3.93458984 33.80083984 -3.93458984 33.80083984 -2.84765625 33.59765625 C-1.92855469 33.42105469 -1.00945312 33.24445313 -0.0625 33.0625 C0.85402344 32.88847656 1.77054687 32.71445312 2.71484375 32.53515625 C4.95289844 32.22285012 4.95289844 32.22285012 6 31 C6.04063832 29.33382885 6.042721 27.66611905 6 26 C2.02245872 25.26665571 2.02245872 25.26665571 -2 25 C-2.33 26.32 -2.66 27.64 -3 29 C-5.97 29.33 -8.94 29.66 -12 30 C-12.79675015 28.14801206 -13.58714361 26.2932889 -14.375 24.4375 C-15.03628906 22.88869141 -15.03628906 22.88869141 -15.7109375 21.30859375 C-17.04091208 17.89499232 -18.04636243 14.53380653 -19 11 C-16.2089613 9.35309997 -13.41706312 7.70766259 -10.625 6.0625 C-9.8309375 5.59392578 -9.036875 5.12535156 -8.21875 4.64257812 C-7.45820313 4.19462891 -6.69765625 3.74667969 -5.9140625 3.28515625 C-5.2123291 2.87144775 -4.5105957 2.45773926 -3.78759766 2.03149414 C-2.54669684 1.31545946 -1.28141812 0.64070906 0 0 Z " fill="#010101" transform="translate(410,291)"/>
<path d="M0 0 C3.13829342 0.44927148 5.22019264 1.64048348 7.75 3.5 C8.36359375 3.9434375 8.9771875 4.386875 9.609375 4.84375 C10.06828125 5.2253125 10.5271875 5.606875 11 6 C11 6.33 11 6.66 11 7 C3.25 7.125 3.25 7.125 1 6 C1 6.66 1 7.32 1 8 C0.01 8 -0.98 8 -2 8 C-2.515625 8.598125 -3.03125 9.19625 -3.5625 9.8125 C-8.29955224 14.06370073 -14.7545971 15.22344912 -21 15 C-18.64494916 12.41406183 -16.13872178 10.75876772 -13.125 9 C-12.28195313 8.505 -11.43890625 8.01 -10.5703125 7.5 C-8.80755193 6.47127651 -7.04314038 5.44537836 -5.27734375 4.421875 C-2.9663483 3.12669954 -2.9663483 3.12669954 -1.4375 1.25 C-0.963125 0.8375 -0.48875 0.425 0 0 Z " fill="#010101" transform="translate(229,200)"/>
<path d="M0 0 C0.66 0.33 1.32 0.66 2 1 C2 1.33 2 1.66 2 2 C2.66 2.33 3.32 2.66 4 3 C2.68 4.65 1.36 6.3 0 8 C0.66 8.33 1.32 8.66 2 9 C1.01 9.495 1.01 9.495 0 10 C-0.33 10.99 -0.66 11.98 -1 13 C-3.3125 13.625 -3.3125 13.625 -6 14 C-6.99 13.34 -7.98 12.68 -9 12 C-7.71937515 10.2925002 -6.38232443 8.62626404 -5 7 C-4.34 7 -3.68 7 -3 7 C-3.33 5.68 -3.66 4.36 -4 3 C-2.68 2.01 -1.36 1.02 0 0 Z " fill="#07050D" transform="translate(213,250)"/>
<path d="M0 0 C0 3 0 3 -1.4375 4.5 C-1.953125 4.995 -2.46875 5.49 -3 6 C-3.33 6.99 -3.66 7.98 -4 9 C-5.96134888 9.55571552 -7.92846548 10.10069675 -9.921875 10.52734375 C-12.40467642 11.09204107 -14.67057249 11.98087547 -17 13 C-13.78203724 7.30668127 -13.78203724 7.30668127 -9.8125 5.75 C-8.4203125 5.37875 -8.4203125 5.37875 -7 5 C-6.67 4.34 -6.34 3.68 -6 3 C-4.34795544 2.29788106 -2.68076231 1.63028587 -1 1 C-0.67 0.67 -0.34 0.34 0 0 Z " fill="#0B0B0C" transform="translate(250,216)"/>
<path d="M0 0 C0.99 0.33 1.98 0.66 3 1 C3 2.32 3 3.64 3 5 C3.99 5 4.98 5 6 5 C6 5.66 6 6.32 6 7 C5.01 7 4.02 7 3 7 C3.33 7.99 3.66 8.98 4 10 C2.02 10.99 2.02 10.99 0 12 C-0.66 11.34 -1.32 10.68 -2 10 C-1.34 10 -0.68 10 0 10 C0.33 8.68 0.66 7.36 1 6 C0.34 6 -0.32 6 -1 6 C-1.33 5.01 -1.66 4.02 -2 3 C-1.34 2.01 -0.68 1.02 0 0 Z " fill="#0D0D0D" transform="translate(271,230)"/>
<path d="M0 0 C0.99 0.33 1.98 0.66 3 1 C3.33 1 3.66 1 4 1 C4.66 1.33 5.32 1.66 6 2 C5.67 2.99 5.34 3.98 5 5 C2.6875 5.625 2.6875 5.625 0 6 C-0.99 5.34 -1.98 4.68 -3 4 C-2.01 2.68 -1.02 1.36 0 0 Z " fill="#0E0C11" transform="translate(207,258)"/>
<path d="M0 0 C1.33333333 0 2.66666667 0 4 0 C4.1953125 6.0546875 4.1953125 6.0546875 4 8 C3.34 8.66 2.68 9.32 2 10 C0.68 9.34 -0.64 8.68 -2 8 C-1.67 7.34 -1.34 6.68 -1 6 C-0.34 6 0.32 6 1 6 C0.67 4.02 0.34 2.04 0 0 Z " fill="#09080B" transform="translate(283,249)"/>
<path d="M0 0 C0.66 0.33 1.32 0.66 2 1 C2 2.65 2 4.3 2 6 C1.01 6 0.02 6 -1 6 C-1.66 5.01 -2.32 4.02 -3 3 C-2.01 2.01 -1.02 1.02 0 0 Z " fill="#08080A" transform="translate(290,273)"/>
<path d="M0 0 C0.66 0 1.32 0 2 0 C2 0.66 2 1.32 2 2 C1.34 2 0.68 2 0 2 C0 1.34 0 0.68 0 0 Z " fill="#030303" transform="translate(351,153)"/>
<path d="" fill="#010101" transform="translate(0,0)"/>
<path d="" fill="#000000" transform="translate(0,0)"/>
<path d="" fill="#000000" transform="translate(0,0)"/>
<path d="" fill="#000000" transform="translate(0,0)"/>
<path d="" fill="#000000" transform="translate(0,0)"/>
<path d="" fill="#000000" transform="translate(0,0)"/>
<path d="" fill="#000000" transform="translate(0,0)"/>
<path d="" fill="#000000" transform="translate(0,0)"/>
</svg>
